<svg width="139" height="139" viewBox="0 0 139 139" fill="none" xmlns="http://www.w3.org/2000/svg">
<rect width="139" height="139" rx="24" fill="#07BE5B"/>
<path d="M26.376 79.272V85.704H111.624V79.272H26.376ZM65.064 70.344V112.488H72.36V70.344H65.064ZM61.8 81.768C53.928 91.944 38.472 101.064 24.456 105.384C26.088 106.824 28.2 109.608 29.352 111.432C43.368 106.344 59.016 96.072 67.752 84.456L61.8 81.768ZM75.72 81.96L69.672 84.84C78.408 96.168 94.056 105.96 108.648 110.76C109.704 108.84 111.912 106.056 113.448 104.616C98.856 100.68 83.496 91.944 75.72 81.96ZM61.32 55.368H76.392V65.928H61.32V55.368ZM61.32 39.528H76.392V49.896H61.32V39.528ZM55.08 33.864V71.592H82.728V33.864H55.08ZM66.312 24.36C65.736 27.816 64.392 32.904 63.24 36.264L68.904 37.512C70.344 34.44 71.976 29.832 73.512 25.512L66.312 24.36ZM27.048 43.08C31.848 47.016 37.512 52.584 40.008 56.424L43.368 51.144C40.872 47.496 35.112 42.12 30.216 38.472L27.048 43.08ZM44.52 57.192C47.304 62.664 49.992 70.056 50.76 74.664L55.848 72.648C54.984 68.232 52.2 61.032 49.32 55.656L44.52 57.192ZM46.92 38.376C42.984 47.112 35.976 59.4 30.408 66.888L35.112 69.096C40.68 61.704 47.496 50.088 52.584 40.584L46.92 38.376ZM39.432 25.032C37.512 30.6 33.864 38.472 31.08 43.368L35.88 45.48C38.856 40.68 42.312 33.384 45.192 27.144L39.432 25.032ZM26.184 66.312L26.952 72.552C33.96 71.4 42.504 70.248 51.336 68.808L51.24 63.624C41.736 64.68 32.712 65.736 26.184 66.312ZM82.152 42.312C87.24 46.728 93 52.968 95.496 57.192L99.24 52.2C96.648 48.168 90.792 42.12 85.8 37.896L82.152 42.312ZM100.008 56.424C103.272 62.472 106.44 70.344 107.4 75.432L112.776 73.224C111.72 68.328 108.36 60.456 105 54.6L100.008 56.424ZM102.408 38.28C98.472 47.112 91.176 59.496 85.512 67.08L90.216 69.288C95.976 61.8 102.984 50.088 108.072 40.584L102.408 38.28ZM95.4 24.744C93.48 30.312 89.736 38.184 86.856 43.08L91.656 45.192C94.728 40.392 98.28 33.192 101.256 26.856L95.4 24.744ZM82.536 66.312L83.4 72.552C90.408 71.592 99.144 70.44 107.976 69.288L107.88 64.008C98.376 64.872 89.256 65.736 82.536 66.312Z" fill="#E49722"/>
</svg>
