<svg width="139" height="139" viewBox="0 0 139 139" fill="none" xmlns="http://www.w3.org/2000/svg">
<rect width="139" height="139" fill="#07BE5B"/>
<path d="M47.4922 78.2402V81H34.6953V78.2402H47.4922ZM35.3633 55.4062V81H31.9707V55.4062H35.3633ZM50.0234 71.7012V71.2969C50.0234 69.9258 50.2227 68.6543 50.6211 67.4824C51.0195 66.2988 51.5938 65.2734 52.3438 64.4062C53.0938 63.5273 54.002 62.8477 55.0684 62.3672C56.1348 61.875 57.3301 61.6289 58.6543 61.6289C59.9902 61.6289 61.1914 61.875 62.2578 62.3672C63.3359 62.8477 64.25 63.5273 65 64.4062C65.7617 65.2734 66.3418 66.2988 66.7402 67.4824C67.1387 68.6543 67.3379 69.9258 67.3379 71.2969V71.7012C67.3379 73.0723 67.1387 74.3438 66.7402 75.5156C66.3418 76.6875 65.7617 77.7129 65 78.5918C64.25 79.459 63.3418 80.1387 62.2754 80.6309C61.2207 81.1113 60.0254 81.3516 58.6895 81.3516C57.3535 81.3516 56.1523 81.1113 55.0859 80.6309C54.0195 80.1387 53.1055 79.459 52.3438 78.5918C51.5938 77.7129 51.0195 76.6875 50.6211 75.5156C50.2227 74.3438 50.0234 73.0723 50.0234 71.7012ZM53.2754 71.2969V71.7012C53.2754 72.6504 53.3867 73.5469 53.6094 74.3906C53.832 75.2227 54.166 75.9609 54.6113 76.6055C55.0684 77.25 55.6367 77.7598 56.3164 78.1348C56.9961 78.498 57.7871 78.6797 58.6895 78.6797C59.5801 78.6797 60.3594 78.498 61.0273 78.1348C61.707 77.7598 62.2695 77.25 62.7148 76.6055C63.1602 75.9609 63.4941 75.2227 63.7168 74.3906C63.9512 73.5469 64.0684 72.6504 64.0684 71.7012V71.2969C64.0684 70.3594 63.9512 69.4746 63.7168 68.6426C63.4941 67.7988 63.1543 67.0547 62.6973 66.4102C62.252 65.7539 61.6895 65.2383 61.0098 64.8633C60.3418 64.4883 59.5566 64.3008 58.6543 64.3008C57.7637 64.3008 56.9785 64.4883 56.2988 64.8633C55.6309 65.2383 55.0684 65.7539 54.6113 66.4102C54.166 67.0547 53.832 67.7988 53.6094 68.6426C53.3867 69.4746 53.2754 70.3594 53.2754 71.2969ZM83.7383 61.9805H86.6914V80.5957C86.6914 82.2715 86.3516 83.7012 85.6719 84.8848C84.9922 86.0684 84.043 86.9648 82.8242 87.5742C81.6172 88.1953 80.2227 88.5059 78.6406 88.5059C77.9844 88.5059 77.2109 88.4004 76.3203 88.1895C75.4414 87.9902 74.5742 87.6445 73.7188 87.1523C72.875 86.6719 72.166 86.0215 71.5918 85.2012L73.2969 83.2676C74.0938 84.2285 74.9258 84.8965 75.793 85.2715C76.6719 85.6465 77.5391 85.834 78.3945 85.834C79.4258 85.834 80.3164 85.6406 81.0664 85.2539C81.8164 84.8672 82.3965 84.293 82.8066 83.5312C83.2285 82.7812 83.4395 81.8555 83.4395 80.7539V66.1641L83.7383 61.9805ZM70.6426 71.7012V71.332C70.6426 69.8789 70.8125 68.5605 71.1523 67.377C71.5039 66.1816 72.002 65.1562 72.6465 64.3008C73.3027 63.4453 74.0938 62.7891 75.0195 62.332C75.9453 61.8633 76.9883 61.6289 78.1484 61.6289C79.3438 61.6289 80.3867 61.8398 81.2773 62.2617C82.1797 62.6719 82.9414 63.2754 83.5625 64.0723C84.1953 64.8574 84.6934 65.8066 85.0566 66.9199C85.4199 68.0332 85.6719 69.293 85.8125 70.6992V72.3164C85.6836 73.7109 85.4316 74.9648 85.0566 76.0781C84.6934 77.1914 84.1953 78.1406 83.5625 78.9258C82.9414 79.7109 82.1797 80.3145 81.2773 80.7363C80.375 81.1465 79.3203 81.3516 78.1133 81.3516C76.9766 81.3516 75.9453 81.1113 75.0195 80.6309C74.1055 80.1504 73.3203 79.4766 72.6641 78.6094C72.0078 77.7422 71.5039 76.7227 71.1523 75.5508C70.8125 74.3672 70.6426 73.084 70.6426 71.7012ZM73.8945 71.332V71.7012C73.8945 72.6504 73.9883 73.541 74.1758 74.373C74.375 75.2051 74.6738 75.9375 75.0723 76.5703C75.4824 77.2031 76.0039 77.7012 76.6367 78.0645C77.2695 78.416 78.0254 78.5918 78.9043 78.5918C79.9824 78.5918 80.873 78.3633 81.5762 77.9062C82.2793 77.4492 82.8359 76.8457 83.2461 76.0957C83.668 75.3457 83.9961 74.5312 84.2305 73.6523V69.416C84.1016 68.7715 83.9023 68.1504 83.6328 67.5527C83.375 66.9434 83.0352 66.4043 82.6133 65.9355C82.2031 65.4551 81.6934 65.0742 81.084 64.793C80.4746 64.5117 79.7598 64.3711 78.9395 64.3711C78.0488 64.3711 77.2812 64.5586 76.6367 64.9336C76.0039 65.2969 75.4824 65.8008 75.0723 66.4453C74.6738 67.0781 74.375 67.8164 74.1758 68.6602C73.9883 69.4922 73.8945 70.3828 73.8945 71.332ZM90.7695 71.7012V71.2969C90.7695 69.9258 90.9688 68.6543 91.3672 67.4824C91.7656 66.2988 92.3398 65.2734 93.0898 64.4062C93.8398 63.5273 94.748 62.8477 95.8145 62.3672C96.8809 61.875 98.0762 61.6289 99.4004 61.6289C100.736 61.6289 101.938 61.875 103.004 62.3672C104.082 62.8477 104.996 63.5273 105.746 64.4062C106.508 65.2734 107.088 66.2988 107.486 67.4824C107.885 68.6543 108.084 69.9258 108.084 71.2969V71.7012C108.084 73.0723 107.885 74.3438 107.486 75.5156C107.088 76.6875 106.508 77.7129 105.746 78.5918C104.996 79.459 104.088 80.1387 103.021 80.6309C101.967 81.1113 100.771 81.3516 99.4355 81.3516C98.0996 81.3516 96.8984 81.1113 95.832 80.6309C94.7656 80.1387 93.8516 79.459 93.0898 78.5918C92.3398 77.7129 91.7656 76.6875 91.3672 75.5156C90.9688 74.3438 90.7695 73.0723 90.7695 71.7012ZM94.0215 71.2969V71.7012C94.0215 72.6504 94.1328 73.5469 94.3555 74.3906C94.5781 75.2227 94.9121 75.9609 95.3574 76.6055C95.8145 77.25 96.3828 77.7598 97.0625 78.1348C97.7422 78.498 98.5332 78.6797 99.4355 78.6797C100.326 78.6797 101.105 78.498 101.773 78.1348C102.453 77.7598 103.016 77.25 103.461 76.6055C103.906 75.9609 104.24 75.2227 104.463 74.3906C104.697 73.5469 104.814 72.6504 104.814 71.7012V71.2969C104.814 70.3594 104.697 69.4746 104.463 68.6426C104.24 67.7988 103.9 67.0547 103.443 66.4102C102.998 65.7539 102.436 65.2383 101.756 64.8633C101.088 64.4883 100.303 64.3008 99.4004 64.3008C98.5098 64.3008 97.7246 64.4883 97.0449 64.8633C96.377 65.2383 95.8145 65.7539 95.3574 66.4102C94.9121 67.0547 94.5781 67.7988 94.3555 68.6426C94.1328 69.4746 94.0215 70.3594 94.0215 71.2969Z" fill="black"/>
<path d="M47.4922 78.2402H48.4922V77.2402H47.4922V78.2402ZM47.4922 81V82H48.4922V81H47.4922ZM34.6953 81H33.6953V82H34.6953V81ZM34.6953 78.2402V77.2402H33.6953V78.2402H34.6953ZM35.3633 55.4062H36.3633V54.4062H35.3633V55.4062ZM35.3633 81V82H36.3633V81H35.3633ZM31.9707 81H30.9707V82H31.9707V81ZM31.9707 55.4062V54.4062H30.9707V55.4062H31.9707ZM46.4922 78.2402V81H48.4922V78.2402H46.4922ZM47.4922 80H34.6953V82H47.4922V80ZM35.6953 81V78.2402H33.6953V81H35.6953ZM34.6953 79.2402H47.4922V77.2402H34.6953V79.2402ZM34.3633 55.4062V81H36.3633V55.4062H34.3633ZM35.3633 80H31.9707V82H35.3633V80ZM32.9707 81V55.4062H30.9707V81H32.9707ZM31.9707 56.4062H35.3633V54.4062H31.9707V56.4062ZM50.6211 67.4824L51.5679 67.8043L51.5688 67.8015L50.6211 67.4824ZM52.3438 64.4062L53.1001 65.0604L53.1044 65.0554L52.3438 64.4062ZM55.0684 62.3672L55.4792 63.279L55.4874 63.2751L55.0684 62.3672ZM62.2578 62.3672L61.8387 63.2752L61.8508 63.2806L62.2578 62.3672ZM65 64.4062L64.2393 65.0554L64.244 65.0608L64.2487 65.0662L65 64.4062ZM66.7402 67.4824L65.7925 67.8015L65.7935 67.8043L66.7402 67.4824ZM65 78.5918L64.2443 77.9369L64.2436 77.9376L65 78.5918ZM62.2754 80.6309L62.69 81.5409L62.6944 81.5388L62.2754 80.6309ZM55.0859 80.6309L54.6669 81.5389L54.6752 81.5426L55.0859 80.6309ZM52.3438 78.5918L51.5831 79.2409L51.5877 79.2464L51.5924 79.2517L52.3438 78.5918ZM53.6094 74.3906L52.6425 74.6458L52.6434 74.6491L53.6094 74.3906ZM54.6113 76.6055L53.7885 77.1739L53.7956 77.1839L54.6113 76.6055ZM56.3164 78.1348L55.8333 79.0104L55.845 79.0167L56.3164 78.1348ZM61.0273 78.1348L61.5051 79.0133L61.5104 79.0103L61.0273 78.1348ZM63.7168 74.3906L62.7532 74.123L62.7508 74.1321L63.7168 74.3906ZM63.7168 68.6426L62.7499 68.8977L62.752 68.9057L62.7543 68.9137L63.7168 68.6426ZM62.6973 66.4102L61.8698 66.9717L61.8756 66.9802L61.8815 66.9886L62.6973 66.4102ZM61.0098 64.8633L60.5202 65.7353L60.5267 65.7389L61.0098 64.8633ZM56.2988 64.8633L55.8157 63.9877L55.8093 63.9913L56.2988 64.8633ZM54.6113 66.4102L53.7907 65.8387L53.7886 65.8417L54.6113 66.4102ZM53.6094 68.6426L54.5754 68.9011L54.5763 68.8977L53.6094 68.6426ZM51.0234 71.7012V71.2969H49.0234V71.7012H51.0234ZM51.0234 71.2969C51.0234 70.0236 51.2083 68.862 51.5679 67.8043L49.6743 67.1605C49.2371 68.4466 49.0234 69.828 49.0234 71.2969H51.0234ZM51.5688 67.8015C51.9296 66.7299 52.4424 65.8209 53.1001 65.0604L51.5874 63.7521C50.7451 64.726 50.1095 65.8678 49.6734 67.1634L51.5688 67.8015ZM53.1044 65.0554C53.7574 64.2902 54.5456 63.6995 55.4791 63.2789L54.6576 61.4555C53.4583 61.9958 52.4301 62.7645 51.5831 63.7571L53.1044 65.0554ZM55.4874 63.2751C56.4066 62.8509 57.4563 62.6289 58.6543 62.6289V60.6289C57.2039 60.6289 55.8629 60.8991 54.6493 61.4592L55.4874 63.2751ZM58.6543 62.6289C59.8654 62.6289 60.9207 62.8514 61.8388 63.2751L62.6769 61.4592C61.4621 60.8986 60.115 60.6289 58.6543 60.6289V62.6289ZM61.8508 63.2806C62.7958 63.7018 63.5882 64.2923 64.2393 65.0554L65.7607 63.7571C64.9118 62.7624 63.8761 61.9936 62.6649 61.4538L61.8508 63.2806ZM64.2487 65.0662C64.916 65.826 65.4328 66.733 65.7925 67.8015L67.688 67.1634C67.2508 65.8647 66.6074 64.7209 65.7513 63.7463L64.2487 65.0662ZM65.7935 67.8043C66.1531 68.862 66.3379 70.0236 66.3379 71.2969H68.3379C68.3379 69.828 68.1243 68.4466 67.687 67.1605L65.7935 67.8043ZM66.3379 71.2969V71.7012H68.3379V71.2969H66.3379ZM66.3379 71.7012C66.3379 72.9745 66.1531 74.136 65.7935 75.1937L67.687 75.8375C68.1243 74.5515 68.3379 73.17 68.3379 71.7012H66.3379ZM65.7935 75.1937C65.4339 76.2512 64.9161 77.1617 64.2443 77.9369L65.7557 79.2467C66.6073 78.264 67.2497 77.1238 67.687 75.8375L65.7935 75.1937ZM64.2436 77.9376C63.589 78.6945 62.7968 79.2889 61.8563 79.7229L62.6944 81.5388C63.8868 80.9885 64.911 80.2234 65.7564 79.2459L64.2436 77.9376ZM61.8608 79.7208C60.9547 80.1336 59.9041 80.3516 58.6895 80.3516V82.3516C60.1467 82.3516 61.4867 82.089 62.69 81.5409L61.8608 79.7208ZM58.6895 80.3516C57.4751 80.3516 56.4169 80.1337 55.4967 79.7191L54.6752 81.5426C55.8878 82.089 57.232 82.3516 58.6895 82.3516V80.3516ZM55.505 79.7229C54.5632 79.2882 53.7629 78.6922 53.0951 77.9319L51.5924 79.2517C52.448 80.2258 53.4759 80.9891 54.6669 81.5388L55.505 79.7229ZM53.1044 77.9427C52.4423 77.1668 51.9285 76.2543 51.5679 75.1937L49.6743 75.8375C50.1106 77.1207 50.7452 78.259 51.5831 79.2409L53.1044 77.9427ZM51.5679 75.1937C51.2083 74.136 51.0234 72.9745 51.0234 71.7012H49.0234C49.0234 73.17 49.2371 74.5515 49.6743 75.8375L51.5679 75.1937ZM52.2754 71.2969V71.7012H54.2754V71.2969H52.2754ZM52.2754 71.7012C52.2754 72.729 52.396 73.7118 52.6425 74.6458L54.5763 74.1355C54.3774 73.3819 54.2754 72.5718 54.2754 71.7012H52.2754ZM52.6434 74.6491C52.8927 75.5809 53.2719 76.4261 53.7886 77.1739L55.4341 76.037C55.0601 75.4958 54.7713 74.8644 54.5754 74.1321L52.6434 74.6491ZM53.7956 77.1839C54.3381 77.949 55.0194 78.5613 55.8333 79.0103L56.7995 77.2592C56.2541 76.9583 55.7986 76.551 55.4271 76.027L53.7956 77.1839ZM55.845 79.0167C56.6927 79.4698 57.6508 79.6797 58.6895 79.6797V77.6797C57.9234 77.6797 57.2995 77.5263 56.7878 77.2528L55.845 79.0167ZM58.6895 79.6797C59.7183 79.6797 60.6672 79.4689 61.5051 79.0132L60.5496 77.2563C60.0515 77.5272 59.4419 77.6797 58.6895 77.6797V79.6797ZM61.5104 79.0103C62.3268 78.5599 63.0052 77.9445 63.5376 77.1739L61.8921 76.037C61.5339 76.5555 61.0872 76.9596 60.5443 77.2592L61.5104 79.0103ZM63.5376 77.1739C64.0542 76.4261 64.4334 75.5809 64.6828 74.6491L62.7508 74.1321C62.5548 74.8644 62.2661 75.4958 61.8921 76.037L63.5376 77.1739ZM64.6803 74.6583C64.9408 73.7204 65.0684 72.7333 65.0684 71.7012H63.0684C63.0684 72.5675 62.9615 73.3734 62.7533 74.123L64.6803 74.6583ZM65.0684 71.7012V71.2969H63.0684V71.7012H65.0684ZM65.0684 71.2969C65.0684 70.2754 64.9406 69.2988 64.6793 68.3714L62.7543 68.9137C62.9618 69.6504 63.0684 70.4433 63.0684 71.2969H65.0684ZM64.6837 68.3874C64.4336 67.4398 64.0463 66.5838 63.513 65.8317L61.8815 66.9886C62.2623 67.5256 62.5546 68.1579 62.7499 68.8977L64.6837 68.3874ZM63.5247 65.8487C62.993 65.065 62.3135 64.4405 61.4928 63.9877L60.5267 65.7389C61.0654 66.0361 61.5109 66.4428 61.8698 66.9717L63.5247 65.8487ZM61.4993 63.9913C60.6572 63.5185 59.6975 63.3008 58.6543 63.3008V65.3008C59.4158 65.3008 60.0264 65.458 60.5202 65.7353L61.4993 63.9913ZM58.6543 63.3008C57.6199 63.3008 56.6639 63.5197 55.8158 63.9877L56.7819 65.7389C57.2931 65.4568 57.9075 65.3008 58.6543 65.3008V63.3008ZM55.8093 63.9913C55.0039 64.4435 54.3301 65.0641 53.7907 65.8387L55.4319 66.9817C55.8066 66.4437 56.2578 66.0331 56.7884 65.7353L55.8093 63.9913ZM53.7886 65.8417C53.2704 66.5918 52.8913 67.4444 52.6425 68.3874L54.5763 68.8977C54.7727 68.1533 55.0616 67.5176 55.4341 66.9786L53.7886 65.8417ZM52.6434 68.3841C52.3963 69.3075 52.2754 70.2797 52.2754 71.2969H54.2754C54.2754 70.439 54.3772 69.6417 54.5754 68.9011L52.6434 68.3841ZM83.7383 61.9805V60.9805H82.8072L82.7408 61.9092L83.7383 61.9805ZM86.6914 61.9805H87.6914V60.9805H86.6914V61.9805ZM82.8242 87.5742L82.377 86.6797L82.3667 86.685L82.8242 87.5742ZM76.3203 88.1895L76.5508 87.2163L76.5414 87.2142L76.3203 88.1895ZM73.7188 87.1523L74.2174 86.2856L74.2136 86.2834L73.7188 87.1523ZM71.5918 85.2012L70.8418 84.5398L70.3213 85.13L70.7726 85.7746L71.5918 85.2012ZM73.2969 83.2676L74.0666 82.6292L73.3202 81.7292L72.5468 82.6062L73.2969 83.2676ZM75.793 85.2715L75.3961 86.1894L75.4005 86.1913L75.793 85.2715ZM82.8066 83.5312L81.9351 83.041L81.9305 83.049L81.9262 83.0572L82.8066 83.5312ZM83.4395 66.1641L82.442 66.0928L82.4395 66.1284V66.1641H83.4395ZM71.1523 67.377L70.193 67.0948L70.1912 67.101L71.1523 67.377ZM72.6465 64.3008L71.853 63.6921L71.8478 63.699L72.6465 64.3008ZM75.0195 62.332L75.4622 63.2288L75.4713 63.2242L75.0195 62.332ZM81.2773 62.2617L80.8493 63.1655L80.8564 63.1688L80.8635 63.1721L81.2773 62.2617ZM83.5625 64.0723L82.7738 64.687L82.7788 64.6934L82.7839 64.6998L83.5625 64.0723ZM85.8125 70.6992H86.8125V70.6493L86.8075 70.5997L85.8125 70.6992ZM85.8125 72.3164L86.8083 72.4085L86.8125 72.3625V72.3164H85.8125ZM85.0566 76.0781L84.1089 75.7589L84.106 75.7679L85.0566 76.0781ZM83.5625 78.9258L82.7839 78.2982L82.7782 78.3054L83.5625 78.9258ZM81.2773 80.7363L81.6912 81.6467L81.7009 81.6422L81.2773 80.7363ZM75.0195 80.6309L74.5542 81.516L74.5589 81.5184L75.0195 80.6309ZM71.1523 75.5508L70.1911 75.8268L70.1945 75.8381L71.1523 75.5508ZM74.1758 74.373L73.2002 74.5929L73.2033 74.6059L74.1758 74.373ZM75.0723 76.5703L74.226 77.1032L74.2331 77.1142L75.0723 76.5703ZM76.6367 78.0645L76.1388 78.9318L76.1511 78.9386L76.6367 78.0645ZM83.2461 76.0957L82.3745 75.6054L82.3687 75.6159L83.2461 76.0957ZM84.2305 73.6523L85.1967 73.91L85.2305 73.7834V73.6523H84.2305ZM84.2305 69.416H85.2305V69.317L85.211 69.2199L84.2305 69.416ZM83.6328 67.5527L82.7118 67.9424L82.7164 67.9532L82.7212 67.9638L83.6328 67.5527ZM82.6133 65.9355L81.8527 66.5848L81.8612 66.5948L81.87 66.6045L82.6133 65.9355ZM76.6367 64.9336L77.1346 65.8009L77.1396 65.7979L76.6367 64.9336ZM75.0723 66.4453L74.2286 65.9084L74.226 65.9125L75.0723 66.4453ZM74.1758 68.6602L73.2025 68.4304L73.2002 68.4403L74.1758 68.6602ZM83.7383 62.9805H86.6914V60.9805H83.7383V62.9805ZM85.6914 61.9805V80.5957H87.6914V61.9805H85.6914ZM85.6914 80.5957C85.6914 82.1363 85.3796 83.3857 84.8047 84.3868L86.5391 85.3828C87.3235 84.0167 87.6914 82.4067 87.6914 80.5957H85.6914ZM84.8047 84.3868C84.2228 85.4001 83.4195 86.1585 82.377 86.6798L83.2714 88.4686C84.6664 87.7711 85.7616 86.7366 86.5391 85.3828L84.8047 84.3868ZM82.3667 86.685C81.3229 87.2221 80.0898 87.5059 78.6406 87.5059V89.5059C80.3555 89.5059 81.9115 89.1685 83.2818 88.4634L82.3667 86.685ZM78.6406 87.5059C78.0857 87.5059 77.3931 87.4159 76.5508 87.2164L76.0898 89.1625C77.0288 89.3849 77.8831 89.5059 78.6406 89.5059V87.5059ZM76.5414 87.2142C75.7687 87.0391 74.9945 86.7326 74.2174 86.2856L73.2201 88.0191C74.1539 88.5564 75.1141 88.9414 76.0993 89.1647L76.5414 87.2142ZM74.2136 86.2834C73.5026 85.8785 72.9031 85.3306 72.411 84.6277L70.7726 85.7746C71.429 86.7124 72.2474 87.4653 73.2239 88.0213L74.2136 86.2834ZM72.3418 85.8626L74.0469 83.929L72.5468 82.6062L70.8418 84.5398L72.3418 85.8626ZM72.5271 83.9059C73.3935 84.9507 74.3455 85.735 75.3961 86.1893L76.1899 84.3536C75.5061 84.0579 74.794 83.5063 74.0666 82.6292L72.5271 83.9059ZM75.4005 86.1913C76.389 86.613 77.3892 86.834 78.3945 86.834V84.834C77.6889 84.834 76.9548 84.68 76.1854 84.3517L75.4005 86.1913ZM78.3945 86.834C79.5503 86.834 80.6049 86.617 81.5247 86.1427L80.6081 84.3651C80.0279 84.6643 79.3013 84.834 78.3945 84.834V86.834ZM81.5247 86.1427C82.4588 85.6611 83.1839 84.94 83.6871 84.0053L81.9262 83.0572C81.6091 83.646 81.174 84.0733 80.6081 84.3651L81.5247 86.1427ZM83.6782 84.0215C84.2047 83.0856 84.4395 81.9801 84.4395 80.7539H82.4395C82.4395 81.7308 82.2523 82.4769 81.9351 83.041L83.6782 84.0215ZM84.4395 80.7539V66.1641H82.4395V80.7539H84.4395ZM84.4369 66.2353L84.7357 62.0517L82.7408 61.9092L82.442 66.0928L84.4369 66.2353ZM71.6426 71.7012V71.332H69.6426V71.7012H71.6426ZM71.6426 71.332C71.6426 69.956 71.8036 68.7324 72.1135 67.6529L70.1912 67.101C69.8214 68.3887 69.6426 69.8018 69.6426 71.332H71.6426ZM72.1117 67.6591C72.4348 66.5606 72.8837 65.6477 73.4452 64.9025L71.8478 63.699C71.1202 64.6648 70.573 65.8027 70.193 67.0948L72.1117 67.6591ZM73.4399 64.9094C74.0071 64.1701 74.68 63.6149 75.4622 63.2287L74.5769 61.4353C73.5075 61.9633 72.5983 62.7206 71.8531 63.6921L73.4399 64.9094ZM75.4713 63.2242C76.2412 62.8343 77.1265 62.6289 78.1484 62.6289V60.6289C76.8501 60.6289 75.6494 60.8922 74.5678 61.4399L75.4713 63.2242ZM78.1484 62.6289C79.2267 62.6289 80.1179 62.819 80.8493 63.1655L81.7054 61.358C80.6556 60.8607 79.4608 60.6289 78.1484 60.6289V62.6289ZM80.8635 63.1721C81.6159 63.5141 82.25 64.0149 82.7738 64.687L84.3512 63.4575C83.6329 62.5358 82.7434 61.8297 81.6911 61.3514L80.8635 63.1721ZM82.7839 64.6998C83.3294 65.3766 83.7744 66.2139 84.106 67.2301L86.0073 66.6097C85.6124 65.3994 85.0612 64.3383 84.3411 63.4447L82.7839 64.6998ZM84.106 67.2301C84.4429 68.2627 84.6826 69.4499 84.8175 70.7987L86.8075 70.5997C86.6612 69.136 86.3969 67.8038 86.0073 66.6097L84.106 67.2301ZM84.8125 70.6992V72.3164H86.8125V70.6992H84.8125ZM84.8167 72.2244C84.6937 73.5559 84.455 74.7317 84.109 75.7589L86.0043 76.3973C86.4083 75.198 86.6735 73.866 86.8083 72.4085L84.8167 72.2244ZM84.106 75.7679C83.7744 76.7842 83.3294 77.6215 82.7839 78.2983L84.3411 79.5533C85.0612 78.6598 85.6124 77.5987 86.0073 76.3883L84.106 75.7679ZM82.7782 78.3054C82.253 78.9693 81.6146 79.4747 80.8538 79.8304L81.7009 81.6422C82.7448 81.1542 83.6298 80.4526 84.3468 79.5462L82.7782 78.3054ZM80.8635 79.826C80.1163 80.1656 79.208 80.3516 78.1133 80.3516V82.3516C79.4326 82.3516 80.6337 82.1273 81.6911 81.6467L80.8635 79.826ZM78.1133 80.3516C77.1222 80.3516 76.2511 80.1434 75.4802 79.7433L74.5589 81.5184C75.6395 82.0793 76.8309 82.3516 78.1133 82.3516V80.3516ZM75.4848 79.7457C74.7077 79.3372 74.0339 78.7623 73.4615 78.0059L71.8667 79.2128C72.6068 80.1908 73.5032 80.9636 74.5543 81.516L75.4848 79.7457ZM73.4615 78.0059C72.8855 77.2448 72.4318 76.3354 72.1102 75.2634L70.1945 75.8381C70.5761 77.1099 71.1301 78.2396 71.8667 79.2128L73.4615 78.0059ZM72.1135 75.2748C71.8024 74.1912 71.6426 73.0019 71.6426 71.7012H69.6426C69.6426 73.166 69.8226 74.5432 70.1912 75.8268L72.1135 75.2748ZM72.8945 71.332V71.7012H74.8945V71.332H72.8945ZM72.8945 71.7012C72.8945 72.7162 72.9948 73.6811 73.2002 74.5929L75.1513 74.1532C74.9818 73.4009 74.8945 72.5846 74.8945 71.7012H72.8945ZM73.2033 74.6059C73.4243 75.5291 73.7617 76.3656 74.226 77.1031L75.9185 76.0375C75.586 75.5094 75.3257 74.8811 75.1483 74.1402L73.2033 74.6059ZM74.2331 77.1142C74.7267 77.8758 75.3635 78.4866 76.1389 78.9317L77.1346 77.1972C76.6443 76.9157 76.2381 76.5305 75.9114 76.0264L74.2331 77.1142ZM76.1511 78.9386C76.9611 79.3887 77.8916 79.5918 78.9043 79.5918V77.5918C78.1592 77.5918 77.5779 77.4434 77.1224 77.1903L76.1511 78.9386ZM78.9043 79.5918C80.1212 79.5918 81.2154 79.3335 82.1212 78.7447L81.0312 77.0678C80.5307 77.3931 79.8437 77.5918 78.9043 77.5918V79.5918ZM82.1212 78.7447C82.9658 78.1957 83.6355 77.4678 84.1235 76.5755L82.3687 75.6159C82.0364 76.2236 81.5928 76.7028 81.0312 77.0678L82.1212 78.7447ZM84.1177 76.586C84.583 75.7587 84.9419 74.8655 85.1967 73.91L83.2642 73.3947C83.0503 74.197 82.7529 74.9327 82.3745 75.6054L84.1177 76.586ZM85.2305 73.6523V69.416H83.2305V73.6523H85.2305ZM85.211 69.2199C85.0674 68.5015 84.8451 67.8083 84.5444 67.1416L82.7212 67.9638C82.9596 68.4925 83.1358 69.0414 83.2499 69.6121L85.211 69.2199ZM84.5538 67.1631C84.2548 66.4565 83.8564 65.8219 83.3566 65.2666L81.87 66.6045C82.2139 66.9867 82.4952 67.4303 82.7118 67.9424L84.5538 67.1631ZM83.3738 65.2863C82.8641 64.6891 82.2353 64.223 81.503 63.885L80.6649 65.7009C81.1515 65.9255 81.5422 66.221 81.8527 66.5848L83.3738 65.2863ZM81.503 63.885C80.7364 63.5312 79.873 63.3711 78.9395 63.3711V65.3711C79.6465 65.3711 80.2128 65.4923 80.6649 65.7009L81.503 63.885ZM78.9395 63.3711C77.9066 63.3711 76.9583 63.5895 76.1338 64.0692L77.1396 65.7979C77.6042 65.5276 78.1911 65.3711 78.9395 65.3711V63.3711ZM76.1389 64.0663C75.3591 64.514 74.7214 65.1341 74.2286 65.9084L75.9159 66.9822C76.2435 66.4675 76.6487 66.0798 77.1346 65.8008L76.1389 64.0663ZM74.226 65.9125C73.7603 66.6522 73.4231 67.4961 73.2025 68.4304L75.149 68.8899C75.3269 68.1368 75.5873 67.5041 75.9185 66.9781L74.226 65.9125ZM73.2002 68.4403C72.9948 69.3521 72.8945 70.317 72.8945 71.332H74.8945C74.8945 70.4486 74.9818 69.6323 75.1513 68.88L73.2002 68.4403ZM91.3672 67.4824L92.314 67.8043L92.3149 67.8015L91.3672 67.4824ZM93.0898 64.4062L93.8462 65.0604L93.8505 65.0554L93.0898 64.4062ZM95.8145 62.3672L96.2253 63.279L96.2335 63.2751L95.8145 62.3672ZM103.004 62.3672L102.585 63.2752L102.597 63.2806L103.004 62.3672ZM105.746 64.4062L104.985 65.0554L104.99 65.0608L104.995 65.0662L105.746 64.4062ZM107.486 67.4824L106.539 67.8015L106.54 67.8043L107.486 67.4824ZM105.746 78.5918L104.99 77.9369L104.99 77.9376L105.746 78.5918ZM103.021 80.6309L103.436 81.5409L103.441 81.5388L103.021 80.6309ZM95.832 80.6309L95.413 81.5389L95.4213 81.5426L95.832 80.6309ZM93.0898 78.5918L92.3292 79.2409L92.3338 79.2464L92.3385 79.2517L93.0898 78.5918ZM94.3555 74.3906L93.3886 74.6458L93.3895 74.6491L94.3555 74.3906ZM95.3574 76.6055L94.5346 77.1739L94.5417 77.1839L95.3574 76.6055ZM97.0625 78.1348L96.5794 79.0104L96.5911 79.0167L97.0625 78.1348ZM101.773 78.1348L102.251 79.0133L102.257 79.0103L101.773 78.1348ZM104.463 74.3906L103.499 74.123L103.497 74.1321L104.463 74.3906ZM104.463 68.6426L103.496 68.8977L103.498 68.9057L103.5 68.9137L104.463 68.6426ZM103.443 66.4102L102.616 66.9717L102.622 66.9802L102.628 66.9886L103.443 66.4102ZM101.756 64.8633L101.266 65.7353L101.273 65.7389L101.756 64.8633ZM97.0449 64.8633L96.5618 63.9877L96.5554 63.9913L97.0449 64.8633ZM95.3574 66.4102L94.5368 65.8387L94.5347 65.8417L95.3574 66.4102ZM94.3555 68.6426L95.3215 68.9011L95.3224 68.8977L94.3555 68.6426ZM91.7695 71.7012V71.2969H89.7695V71.7012H91.7695ZM91.7695 71.2969C91.7695 70.0236 91.9544 68.862 92.314 67.8043L90.4204 67.1605C89.9831 68.4466 89.7695 69.828 89.7695 71.2969H91.7695ZM92.3149 67.8015C92.6757 66.7299 93.1885 65.8209 93.8462 65.0604L92.3335 63.7521C91.4912 64.726 90.8556 65.8678 90.4194 67.1634L92.3149 67.8015ZM93.8505 65.0554C94.5035 64.2902 95.2917 63.6995 96.2252 63.2789L95.4037 61.4555C94.2044 61.9958 93.1762 62.7645 92.3292 63.7571L93.8505 65.0554ZM96.2335 63.2751C97.1527 62.8509 98.2024 62.6289 99.4004 62.6289V60.6289C97.95 60.6289 96.609 60.8991 95.3954 61.4592L96.2335 63.2751ZM99.4004 62.6289C100.612 62.6289 101.667 62.8514 102.585 63.2751L103.423 61.4592C102.208 60.8986 100.861 60.6289 99.4004 60.6289V62.6289ZM102.597 63.2806C103.542 63.7018 104.334 64.2923 104.985 65.0554L106.507 63.7571C105.658 62.7624 104.622 61.9936 103.411 61.4538L102.597 63.2806ZM104.995 65.0662C105.662 65.826 106.179 66.733 106.539 67.8015L108.434 67.1634C107.997 65.8647 107.353 64.7209 106.497 63.7463L104.995 65.0662ZM106.54 67.8043C106.899 68.862 107.084 70.0236 107.084 71.2969H109.084C109.084 69.828 108.87 68.4466 108.433 67.1605L106.54 67.8043ZM107.084 71.2969V71.7012H109.084V71.2969H107.084ZM107.084 71.7012C107.084 72.9745 106.899 74.136 106.54 75.1937L108.433 75.8375C108.87 74.5515 109.084 73.17 109.084 71.7012H107.084ZM106.54 75.1937C106.18 76.2512 105.662 77.1617 104.99 77.9369L106.502 79.2467C107.353 78.264 107.996 77.1238 108.433 75.8375L106.54 75.1937ZM104.99 77.9376C104.335 78.6945 103.543 79.2889 102.602 79.7229L103.441 81.5388C104.633 80.9885 105.657 80.2234 106.502 79.2459L104.99 77.9376ZM102.607 79.7208C101.701 80.1336 100.65 80.3516 99.4355 80.3516V82.3516C100.893 82.3516 102.233 82.089 103.436 81.5409L102.607 79.7208ZM99.4355 80.3516C98.2212 80.3516 97.1629 80.1337 96.2428 79.7191L95.4213 81.5426C96.6339 82.089 97.9781 82.3516 99.4355 82.3516V80.3516ZM96.2511 79.7229C95.3093 79.2882 94.509 78.6922 93.8412 77.9319L92.3385 79.2517C93.1941 80.2258 94.222 80.9891 95.413 81.5388L96.2511 79.7229ZM93.8505 77.9427C93.1884 77.1668 92.6746 76.2543 92.314 75.1937L90.4204 75.8375C90.8567 77.1207 91.4913 78.259 92.3292 79.2409L93.8505 77.9427ZM92.314 75.1937C91.9544 74.136 91.7695 72.9745 91.7695 71.7012H89.7695C89.7695 73.17 89.9831 74.5515 90.4204 75.8375L92.314 75.1937ZM93.0215 71.2969V71.7012H95.0215V71.2969H93.0215ZM93.0215 71.7012C93.0215 72.729 93.1421 73.7118 93.3886 74.6458L95.3224 74.1355C95.1235 73.3819 95.0215 72.5718 95.0215 71.7012H93.0215ZM93.3895 74.6491C93.6388 75.5809 94.018 76.4261 94.5347 77.1739L96.1802 76.037C95.8062 75.4958 95.5174 74.8644 95.3215 74.1321L93.3895 74.6491ZM94.5417 77.1839C95.0842 77.949 95.7655 78.5613 96.5794 79.0103L97.5456 77.2592C97.0001 76.9583 96.5447 76.551 96.1732 76.027L94.5417 77.1839ZM96.5911 79.0167C97.4388 79.4698 98.3969 79.6797 99.4355 79.6797V77.6797C98.6695 77.6797 98.0456 77.5263 97.5339 77.2528L96.5911 79.0167ZM99.4355 79.6797C100.464 79.6797 101.413 79.4689 102.251 79.0132L101.296 77.2563C100.798 77.5272 100.188 77.6797 99.4355 77.6797V79.6797ZM102.257 79.0103C103.073 78.5599 103.751 77.9445 104.284 77.1739L102.638 76.037C102.28 76.5555 101.833 76.9596 101.29 77.2592L102.257 79.0103ZM104.284 77.1739C104.8 76.4261 105.18 75.5809 105.429 74.6491L103.497 74.1321C103.301 74.8644 103.012 75.4958 102.638 76.037L104.284 77.1739ZM105.426 74.6583C105.687 73.7204 105.814 72.7333 105.814 71.7012H103.814C103.814 72.5675 103.708 73.3734 103.499 74.123L105.426 74.6583ZM105.814 71.7012V71.2969H103.814V71.7012H105.814ZM105.814 71.2969C105.814 70.2754 105.687 69.2988 105.425 68.3714L103.5 68.9137C103.708 69.6504 103.814 70.4433 103.814 71.2969H105.814ZM105.43 68.3874C105.18 67.4398 104.792 66.5838 104.259 65.8317L102.628 66.9886C103.008 67.5256 103.301 68.1579 103.496 68.8977L105.43 68.3874ZM104.271 65.8487C103.739 65.065 103.06 64.4405 102.239 63.9877L101.273 65.7389C101.811 66.0361 102.257 66.4428 102.616 66.9717L104.271 65.8487ZM102.245 63.9913C101.403 63.5185 100.444 63.3008 99.4004 63.3008V65.3008C100.162 65.3008 100.772 65.458 101.266 65.7353L102.245 63.9913ZM99.4004 63.3008C98.366 63.3008 97.41 63.5197 96.5618 63.9877L97.528 65.7389C98.0392 65.4568 98.6536 65.3008 99.4004 65.3008V63.3008ZM96.5554 63.9913C95.75 64.4435 95.0762 65.0641 94.5368 65.8387L96.178 66.9817C96.5527 66.4437 97.0039 66.0331 97.5345 65.7353L96.5554 63.9913ZM94.5347 65.8417C94.0165 66.5918 93.6374 67.4444 93.3886 68.3874L95.3224 68.8977C95.5188 68.1533 95.8077 67.5176 96.1802 66.9786L94.5347 65.8417ZM93.3895 68.3841C93.1423 69.3075 93.0215 70.2797 93.0215 71.2969H95.0215C95.0215 70.439 95.1233 69.6417 95.3215 68.9011L93.3895 68.3841Z" fill="black"/>
</svg>
